<svg width="228" height="43" viewBox="0 0 228 43" fill="none" xmlns="http://www.w3.org/2000/svg">
<path d="M21.9188 42.9785L21.9169 43H21.1936L21.1914 42.9792L21.9188 42.9785Z" fill="#FF6C87"/>
<path d="M42.9941 20.6359C43.0011 20.6355 43.0081 20.6359 43.0149 20.6372V21.0875L43.0046 21.0889L42.9943 21.0888L42.9941 20.6359Z" fill="#FF6C87"/>
<path d="M21.9202 42.9779L21.1928 42.9786C20.8623 42.9461 20.5306 42.9229 20.2018 42.8784C19.9105 42.8389 19.8557 42.7581 19.872 42.4588C19.9302 41.3904 19.9839 40.3217 20.0497 39.2537C20.17 37.3008 20.3 35.3485 20.4216 33.3957C20.5178 31.8499 20.6106 30.3039 20.6999 28.7576C20.8144 26.8034 20.9324 24.8493 21.0012 22.8927C21.0719 21.0939 21.0398 19.2925 20.9049 17.4974C20.8089 16.2858 20.7416 15.072 20.6685 13.8587C20.5681 12.1919 20.4713 10.525 20.3779 8.85787C20.3079 7.64389 20.243 6.4296 20.1683 5.21591C20.0761 3.71977 19.979 2.22394 19.877 0.72842C19.8319 0.0800854 19.8893 0.00443926 20.5358 0.00443926C21.313 0.00443926 22.0903 0.00838549 22.8674 0.00179073C22.9089 -0.00262982 22.9508 0.00115343 22.9908 0.0129244C23.0308 0.0246955 23.068 0.0442237 23.1005 0.0703938C23.1329 0.096564 23.1598 0.128864 23.1798 0.165448C23.1997 0.202032 23.2123 0.242185 23.2167 0.283612C23.2595 0.610325 23.2563 0.941421 23.2071 1.26724C23.1414 2.3439 23.0619 3.41971 22.9908 4.49606C22.8978 5.90412 22.8064 7.31228 22.7166 8.72056C22.6152 10.2866 22.5183 11.853 22.4119 13.4188C22.2664 15.5614 22.1367 17.7052 21.9242 19.8428C21.8445 21.0446 21.8627 22.251 21.9788 23.4498C22.0348 24.3351 22.0851 25.2208 22.1473 26.1057C22.2652 27.7829 22.3919 29.4594 22.511 31.1365C22.592 32.2783 22.6652 33.4206 22.7435 34.5625C22.9063 36.9341 23.0696 39.3056 23.2334 41.6771C23.2494 41.9098 23.266 42.1424 23.2797 42.3752C23.2909 42.4342 23.2892 42.495 23.2748 42.5533C23.2603 42.6117 23.2334 42.6662 23.1959 42.7132C23.1585 42.7602 23.1113 42.7986 23.0576 42.8256C23.0039 42.8527 22.945 42.8679 22.8849 42.8702C22.5645 42.9144 22.2419 42.9427 21.9202 42.9779Z" fill="#FF6C87"/>
<path d="M20.3747 20.7962C20.3301 22.326 20.1341 23.8477 19.7896 25.3389C19.1193 28.6367 18.4557 31.9359 17.7989 35.2365C17.3943 37.2511 16.9899 39.2658 16.5856 41.2805C16.5438 41.4884 16.4997 41.6963 16.4452 41.9012C16.4388 41.9481 16.4221 41.993 16.3961 42.0326C16.3702 42.0722 16.3357 42.1056 16.2952 42.1302C16.2547 42.1548 16.2093 42.1701 16.1621 42.1749C16.115 42.1797 16.0674 42.174 16.0228 42.1581C15.312 42.0021 14.6329 41.7395 13.9355 41.5385C13.8398 41.511 13.7452 41.4797 13.6505 41.449C13.2345 41.3138 13.1487 41.1394 13.2946 40.7228C13.5752 39.9214 13.8588 39.121 14.1371 38.3187C15.35 34.8224 16.5619 31.3257 17.7728 27.8287C18.3265 26.2275 18.8658 24.6213 19.4237 23.0216C19.7765 21.9638 19.7639 20.8183 19.3881 19.7684C18.8022 17.9691 18.1634 16.187 17.5446 14.3985C16.1492 10.365 14.7532 6.33166 13.3566 2.29851C13.1754 1.77471 13.2968 1.56074 13.8293 1.40454C14.5341 1.19775 15.2358 0.980179 15.9387 0.76646C16.2658 0.666993 16.4318 0.765451 16.4962 1.09582C16.8338 2.8285 17.1662 4.56223 17.5114 6.29339C18.3444 10.4707 19.1803 14.6475 20.019 18.8237C20.1849 19.4718 20.3038 20.131 20.3747 20.7962Z" fill="#FF6C87"/>
<path d="M29.7472 41.0273C29.7518 41.1151 29.7252 41.2016 29.6721 41.2717C29.6191 41.3418 29.543 41.3909 29.4573 41.4105C28.6214 41.6839 27.7837 41.9518 26.9442 42.2139C26.768 42.2691 26.6823 42.153 26.6448 41.9977C26.3996 40.9817 26.1539 39.9653 25.9647 38.9372C25.1159 34.326 24.1349 29.7415 23.2082 25.146C22.9887 24.0576 22.7016 22.9814 22.5827 21.8739C22.5375 21.0828 22.6162 20.2895 22.816 19.5227C23.1666 17.8198 23.5362 16.1208 23.8885 14.4183C24.3798 12.0437 24.8657 9.66804 25.3463 7.29123C25.7695 5.17686 26.173 3.05851 26.5842 0.941711C26.6431 0.638246 26.7723 0.559693 27.0589 0.658433C27.8669 0.936869 28.6752 1.21483 29.4836 1.49232C29.8041 1.60244 29.853 1.70614 29.7425 2.02443C28.9745 4.23705 28.2073 6.44997 27.441 8.6632C26.1415 12.4379 24.8445 16.2134 23.5502 19.9899C23.1994 21.127 23.2505 22.35 23.695 23.4539C24.5761 26.0231 25.4615 28.5908 26.3514 31.157C27.4515 34.3427 28.5409 37.5321 29.6782 40.7048C29.7218 40.8069 29.7452 40.9164 29.7472 41.0273Z" fill="#FF6C87"/>
<path d="M24.0315 21.5492C24.0083 20.8353 24.1662 20.1272 24.4904 19.4906C25.4003 17.7125 26.3229 15.941 27.2359 14.1646C28.8716 10.9823 30.5505 7.82283 32.2168 4.6567C32.4067 4.29585 32.5976 3.93548 32.7893 3.57561C32.9245 3.32174 33.0605 3.2875 33.2854 3.45789C33.9646 3.97251 34.6427 4.4887 35.3196 5.00647C35.5617 5.19164 35.5724 5.30404 35.3766 5.57255C34.0174 7.43681 32.6577 9.30073 31.2976 11.1643C29.4576 13.6865 27.6186 16.2094 25.7807 18.733C25.172 19.4893 24.8177 20.4182 24.7681 21.3876C24.785 22.3766 25.135 23.331 25.7617 24.0966C28.6146 27.9222 31.3098 31.8629 34.1753 35.6792C34.5623 36.1946 34.9434 36.7144 35.3283 37.2314C35.5034 37.4667 35.496 37.5808 35.2834 37.7799C34.6737 38.3524 34.0146 38.87 33.314 39.3268C33.0058 39.5273 32.8647 39.4922 32.689 39.1627C31.5005 36.9345 30.3123 34.7061 29.1539 32.4618C27.694 29.6334 26.2282 26.808 24.7567 23.9856C24.3167 23.2461 24.0675 22.4089 24.0315 21.5492Z" fill="#FF6C87"/>
<path d="M18.9457 21.7298C18.9056 22.4832 18.6813 23.2153 18.2924 23.862C17.3941 25.566 16.5191 27.2824 15.6293 28.9909C13.8746 32.3601 12.1179 35.7283 10.3593 39.0955C10.1045 39.5841 10.0689 39.5905 9.59599 39.294C8.92004 38.8679 8.28573 38.3792 7.70144 37.8344C7.66416 37.8075 7.6331 37.7729 7.61038 37.733C7.58765 37.693 7.5738 37.6487 7.56975 37.6029C7.56569 37.5571 7.57155 37.511 7.5869 37.4677C7.60226 37.4244 7.62676 37.3849 7.65874 37.3519C10.1288 33.941 12.5987 30.5301 15.0687 27.1192C15.9155 25.9499 16.7872 24.7979 17.6031 23.6073C17.9892 23.0423 18.2147 22.3832 18.2557 21.7002C18.2966 21.0172 18.1515 20.3359 17.8357 19.7288C17.5047 19.0987 17.1087 18.5048 16.6542 17.957C15.9588 16.9884 15.2624 16.0204 14.5515 15.0633C12.2239 11.9302 9.94732 8.75973 7.64573 5.60756C7.48075 5.38161 7.5042 5.23657 7.71269 5.04528C8.3902 4.47507 9.10391 3.94927 9.84935 3.47119C10.0163 3.35365 10.1549 3.40719 10.2666 3.62047C10.734 4.51246 11.1977 5.4064 11.6674 6.29715C13.8973 10.5263 16.0829 14.7785 18.2761 19.0268C18.7353 19.8524 18.9664 20.7853 18.9457 21.7298Z" fill="#FF6C87"/>
<path d="M25.4852 21.3841C25.4922 20.9687 25.5828 20.559 25.7515 20.1793C25.9202 19.7996 26.1635 19.4577 26.4671 19.1739C27.6331 17.9686 28.8317 16.7949 30.0174 15.6088C32.3776 13.2481 34.7383 10.8878 37.0994 8.52789C37.3083 8.31909 37.5227 8.11565 37.7379 7.91334C37.9467 7.71716 38.1015 7.73045 38.2643 7.96141C38.7578 8.66175 39.2477 9.36467 39.7409 10.0653C39.7694 10.0948 39.7905 10.1306 39.8025 10.1697C39.8145 10.2089 39.817 10.2504 39.8099 10.2907C39.8028 10.3311 39.7862 10.3692 39.7616 10.4019C39.7369 10.4347 39.7049 10.4611 39.668 10.4791C38.2414 11.498 36.8158 12.5181 35.391 13.5396C34.0655 14.4923 32.742 15.4479 31.4205 16.4064C30.0054 17.4278 28.5828 18.439 27.1761 19.472C26.8718 19.7038 26.6257 20.0032 26.4573 20.3466C26.2888 20.6899 26.2027 21.0678 26.2056 21.4502C26.2086 21.8326 26.3006 22.209 26.4744 22.5497C26.6481 22.8904 26.8989 23.186 27.2067 23.413C30.396 25.7176 33.5878 28.0188 36.7818 30.3168C37.7296 30.9988 38.6871 31.6671 39.6402 32.3414C39.8393 32.4823 39.8684 32.6022 39.7402 32.8062C39.2791 33.5392 38.7618 34.2352 38.1928 34.8881C38.0035 35.1056 37.9108 35.1018 37.6993 34.9038C36.5868 33.863 35.5123 32.7836 34.4388 31.7025C32.7115 29.9631 30.9652 28.2426 29.239 26.502C28.5179 25.7749 27.7738 25.0723 27.0402 24.3585C26.515 23.8458 26.0737 23.2536 25.7328 22.6037C25.5441 22.2261 25.4587 21.8053 25.4852 21.3841Z" fill="#FF6C87"/>
<path d="M17.4999 21.6462C17.4271 22.5181 17.0152 23.3267 16.3526 23.8984C14.5964 25.6563 12.8341 27.4081 11.0657 29.1537C9.60088 30.6069 8.13536 32.0593 6.66908 33.511C6.22072 33.9568 5.78531 34.4158 5.34459 34.8694C5.13366 35.0865 5.01348 35.0923 4.8046 34.8692C4.21933 34.247 3.70773 33.5595 3.27989 32.8203C3.24895 32.7813 3.22722 32.7357 3.2163 32.6871C3.20538 32.6385 3.20555 32.588 3.21681 32.5394C3.22806 32.4909 3.25011 32.4455 3.28132 32.4066C3.31253 32.3678 3.35209 32.3364 3.39708 32.3149C5.15686 31.0528 6.91736 29.7917 8.67857 28.5317C11.0752 26.8161 13.4716 25.1003 15.8679 23.3843C16.3784 22.9766 16.7078 22.3844 16.785 21.7359C16.8621 21.0873 16.6808 20.4345 16.2803 19.9185C15.9068 19.4987 15.4712 19.1386 14.9886 18.8508C12.0441 16.735 9.0975 14.6221 6.1488 12.5121C5.23321 11.8569 4.30899 11.2139 3.3887 10.5653C3.16721 10.4092 3.13926 10.293 3.288 10.0895C3.79332 9.39812 4.30048 8.70806 4.8095 8.01936C4.98528 7.7819 5.11554 7.77652 5.32692 7.9874C6.9064 9.56307 8.48552 11.1391 10.0643 12.7155C11.4305 14.0807 12.7957 15.4469 14.16 16.8141C14.9903 17.6436 15.8312 18.4626 16.6542 19.2994C16.9463 19.6132 17.1719 19.983 17.3172 20.3863C17.4626 20.7896 17.5247 21.2182 17.4999 21.6462Z" fill="#FF6C87"/>
<path d="M26.9375 21.3535C26.9493 21.0416 27.0461 20.7388 27.2174 20.4779C27.3887 20.2169 27.628 20.0077 27.9095 19.8727C30.0855 18.7885 32.2781 17.7384 34.4697 16.6862C36.6387 15.6449 38.8396 14.6717 40.9966 13.605C41.3097 13.4501 41.4882 13.52 41.604 13.8505C41.8723 14.6166 42.1384 15.3835 42.4021 16.1511C42.4852 16.3923 42.422 16.5076 42.1736 16.5765C37.7821 17.7947 33.3906 19.013 28.9991 20.2315C28.7746 20.2912 28.5533 20.3623 28.336 20.4445C28.1342 20.5179 27.9619 20.6552 27.8452 20.8355C27.7286 21.0157 27.674 21.2291 27.6897 21.4432C27.6736 21.6708 27.7392 21.8966 27.8749 22.0801C28.0105 22.2636 28.2072 22.3927 28.4295 22.4442C29.7102 22.8096 30.9928 23.1679 32.2745 23.5298C35.3817 24.4072 38.4889 25.2848 41.5959 26.1626C41.7555 26.2077 41.9152 26.252 42.0748 26.2968C42.1247 26.3047 42.1724 26.3233 42.2146 26.3512C42.2567 26.3791 42.2924 26.4156 42.3193 26.4585C42.3461 26.5013 42.3634 26.5494 42.3701 26.5995C42.3768 26.6496 42.3727 26.7006 42.358 26.749C42.2004 27.5758 41.9607 28.3848 41.6424 29.1641C41.5347 29.4266 41.3891 29.4719 41.1124 29.3387C39.6486 28.6347 38.1852 27.9302 36.7219 27.2252C33.8138 25.8256 30.9058 24.4257 27.998 23.0254C27.6796 22.8775 27.4105 22.6413 27.2225 22.3449C27.0345 22.0485 26.9356 21.7044 26.9375 21.3535Z" fill="#FF6C87"/>
<path d="M1.64311 13.4581C1.80296 13.4849 1.95621 13.542 2.09465 13.6262C5.50291 15.2293 8.89594 16.8643 12.2862 18.5051C13.1758 18.9357 14.0645 19.3683 14.9588 19.7889C15.2701 19.9178 15.5384 20.1321 15.7329 20.4071C15.9273 20.682 16.0399 21.0064 16.0576 21.3426C16.0806 21.6715 16.0058 21.9998 15.8425 22.2863C15.6791 22.5727 15.4347 22.8044 15.1398 22.9522C14.4026 23.3513 13.6349 23.6942 12.8782 24.0568C9.21314 25.8131 5.53536 27.543 1.90982 29.3811C1.59776 29.5393 1.46052 29.4846 1.33636 29.1608C1.04326 28.3899 0.807318 27.5985 0.630438 26.793C0.565902 26.5034 0.629428 26.3883 0.918952 26.306C2.63519 25.8179 4.35169 25.3308 6.06847 24.8448C8.87149 24.0565 11.6751 23.2703 14.4794 22.4863C14.6642 22.4481 14.8359 22.3624 14.9777 22.2378C15.1194 22.1132 15.2263 21.9538 15.2878 21.7754C15.3494 21.5971 15.3634 21.4058 15.3287 21.2203C15.2939 21.0348 15.2115 20.8616 15.0895 20.7176C14.9106 20.5236 14.6756 20.3901 14.4173 20.3356C11.0891 19.3927 7.76106 18.4494 4.4331 17.5057C3.37963 17.207 2.32655 16.9068 1.27387 16.6054C1.19028 16.5815 1.11004 16.5458 1.02829 16.5155C0.927979 16.4873 0.842857 16.4207 0.791483 16.3301C0.740108 16.2395 0.726648 16.1323 0.754036 16.0319C0.896934 15.2449 1.12324 14.4781 1.32584 13.7057C1.3377 13.632 1.37699 13.5655 1.43584 13.5196C1.49469 13.4737 1.56873 13.4517 1.64311 13.4581Z" fill="#FF6C87"/>
<path d="M42.9948 20.637L42.9949 21.0899C42.9923 21.5942 42.9896 22.0985 42.987 22.6029C42.9854 22.9833 42.8516 23.1069 42.4753 23.0689C40.2453 22.8439 38.015 22.6232 35.7816 22.4331C33.9132 22.2741 32.0458 22.1027 30.1782 21.9338C29.7073 21.8912 29.237 21.8407 28.7673 21.7863C28.7229 21.7868 28.679 21.7783 28.638 21.7612C28.5971 21.7441 28.5601 21.7189 28.5293 21.687C28.4984 21.6552 28.4744 21.6174 28.4587 21.5759C28.443 21.5344 28.436 21.4902 28.438 21.4459C28.4322 21.3979 28.4367 21.3492 28.4512 21.303C28.4656 21.2568 28.4897 21.2142 28.5218 21.178C28.5539 21.1418 28.5933 21.1127 28.6374 21.0928C28.6815 21.0729 28.7294 21.0626 28.7778 21.0625C29.4966 20.9983 30.2152 20.9307 30.9341 20.8676C32.36 20.7424 33.786 20.6185 35.2121 20.4957C36.3033 20.4016 37.3948 20.3112 38.4859 20.2161C39.6851 20.1116 40.8839 20.0031 42.083 19.8978C42.2605 19.8822 42.4386 19.8677 42.6167 19.8651C42.6554 19.8608 42.6946 19.8642 42.732 19.8751C42.7694 19.8861 42.8043 19.9043 42.8346 19.9288C42.8649 19.9533 42.8901 19.9835 42.9087 20.0177C42.9272 20.052 42.9388 20.0896 42.9428 20.1283C42.9697 20.2963 42.9782 20.4673 42.9948 20.637Z" fill="#FF6C87"/>
<path d="M0.0187823 21.4922C0.0187823 21.0629 0.0179395 20.6336 0.0190784 20.2043C0.0198376 19.9245 0.105633 19.8547 0.386228 19.8797C1.73819 20.0002 3.09032 20.119 4.44261 20.236C6.01383 20.372 7.58519 20.5063 9.15668 20.6391C10.8021 20.7766 12.4481 20.9074 14.0935 21.045C14.175 21.0379 14.2568 21.052 14.3312 21.086C14.4055 21.1199 14.4698 21.1725 14.5177 21.2387C14.5497 21.2905 14.5678 21.3497 14.5705 21.4105C14.5731 21.4714 14.5602 21.5319 14.5329 21.5863C14.5056 21.6407 14.4648 21.6872 14.4144 21.7215C14.364 21.7557 14.3057 21.7765 14.2451 21.7819C13.5858 21.8566 12.9251 21.9192 12.2644 21.9809C11.1326 22.0866 10.0003 22.1866 8.86848 22.2912C7.38156 22.4287 5.89451 22.5645 4.40813 22.7081C3.07424 22.837 1.74135 22.9763 0.407828 23.1091C0.114508 23.1383 0.0144773 23.036 0.017651 22.7422C0.0221306 22.3256 0.0187899 21.9089 0.0187823 21.4922Z" fill="#FF6C87"/>
<path d="M224.5 33C226.43 33 228 34.5703 228 36.5C228 38.4297 226.43 40 224.5 40C222.57 40 221 38.4297 221 36.5C221 34.5703 222.57 33 224.5 33ZM225.105 38.3919C225.049 38.2689 224.964 38.0703 224.878 37.8905L224.405 36.8689H223.961V37.7108C223.961 37.9095 223.97 38.2878 223.97 38.3919H223.138C223.138 38.2878 223.147 37.9095 223.147 37.7108V34.6081H224.765C225.389 34.6081 225.9 35.1189 225.9 35.7432C225.9 36.1973 225.72 36.5284 225.323 36.727C225.266 36.7554 225.162 36.7838 225.134 36.7743L225.124 36.7932C225.162 36.8122 225.219 36.8784 225.247 36.9351L225.654 37.777C225.768 38.0135 225.947 38.3919 225.947 38.3919H225.105ZM224.708 35.3649H223.961V36.1122H224.708C224.916 36.1122 225.086 35.9514 225.086 35.7432C225.086 35.5351 224.916 35.3649 224.708 35.3649ZM224.5 33.7568C223.015 33.7568 221.814 34.9865 221.814 36.5C221.814 38.0135 223.015 39.2432 224.5 39.2432C225.985 39.2432 227.186 38.0135 227.186 36.5C227.186 34.9865 225.985 33.7568 224.5 33.7568Z" fill="#C4C4C4"/>
<path d="M67.2945 30.55V26.15C66.1936 25.1 63.7417 24 61.2899 24C57.9373 24 56.186 25.95 56.186 27.9C56.186 29.85 57.9373 31.9 61.8403 31.9C63.9419 31.9 66.0935 31.3 67.2945 30.55ZM72.9488 19.95V33.2C70.9973 35 66.5939 36.6 61.7902 36.6C53.5339 36.6 50.0312 31.9 50.0312 27.65C50.0312 23.25 53.7341 19.4 59.9388 19.4C62.4908 19.4 65.5932 20.05 67.2945 21.65V18.7C67.2945 16.3 65.9935 14.8 61.7402 14.8C58.4877 14.8 56.0358 15.7 54.6848 16.25L52.8834 11.95C55.0851 10.9 58.1875 9.9 62.3907 9.9C70.7471 9.9 72.9488 13.85 72.9488 19.95Z" fill="#C4C4C4"/>
<path d="M97.2181 28.85L99.1196 32.95C97.9687 34.1 94.8663 36.6 89.162 36.6C83.2074 36.6 76.102 31.6 76.102 23.25C76.102 15.6 82.4068 9.9 89.7624 9.9C94.0657 9.9 97.5184 12 98.369 12.85L96.1173 17.3C95.4168 16.65 93.115 14.85 90.0126 14.85C85.9595 14.85 82.2066 17.85 82.2066 23.3C82.2066 28.25 85.6593 31.75 90.0126 31.75C93.9657 31.75 96.3675 29.8 97.2181 28.85Z" fill="#C4C4C4"/>
<path d="M110.455 35.85H104.55V15.45H99.7967V10.65H104.55V2H110.455V10.65H116.66V15.45H110.455V35.85Z" fill="#C4C4C4"/>
<path d="M140.092 29.05L141.943 33.25C140.592 34.45 136.639 36.6 131.285 36.6C122.928 36.6 117.324 31.4 117.324 23.4C117.324 15.6 122.628 9.9 130.534 9.9C138.741 9.9 142.844 16 142.844 23V25.45H123.429C123.779 28.7 126.731 31.7 132.286 31.7C136.189 31.7 138.741 30.1 140.092 29.05ZM123.479 20.7H136.689C136.539 17.4 134.337 14.55 130.434 14.55C126.982 14.55 123.929 16.75 123.479 20.7Z" fill="#C4C4C4"/>
<path d="M156.965 37H154.814L142.504 10.6H149.059L154.564 23.5C155.314 25.25 155.664 26.1 155.865 27.25H155.965C156.115 26.1 156.415 25.3 157.166 23.5L162.62 10.6H169.075L156.965 37Z" fill="#C4C4C4"/>
<path d="M193.165 35.85H187.26V22.1C187.26 17.7 186.46 15.1 182.357 15.1C179.905 15.1 177.353 16.95 176.552 18V35.85H170.648V10.6H176.552V13.2C177.853 12 180.755 9.9 184.658 9.9C190.163 9.9 193.165 12.65 193.165 19V35.85Z" fill="#C4C4C4"/>
<path d="M213.338 30.55V26.15C212.237 25.1 209.785 24 207.333 24C203.981 24 202.229 25.95 202.229 27.9C202.229 29.85 203.981 31.9 207.884 31.9C209.985 31.9 212.137 31.3 213.338 30.55ZM218.992 19.95V33.2C217.041 35 212.637 36.6 207.834 36.6C199.577 36.6 196.075 31.9 196.075 27.65C196.075 23.25 199.777 19.4 205.982 19.4C208.534 19.4 211.637 20.05 213.338 21.65V18.7C213.338 16.3 212.037 14.8 207.784 14.8C204.531 14.8 202.079 15.7 200.728 16.25L198.927 11.95C201.129 10.9 204.231 9.9 208.434 9.9C216.791 9.9 218.992 13.85 218.992 19.95Z" fill="#C4C4C4"/>
</svg>
