<svg height="56.6586" viewBox="0 0 56.6586 56.6586" width="56.6586" xmlns="http://www.w3.org/2000/svg"><path d="m28.84689 56.63025-.0026.02835h-.95255l-.00295-.02743z" fill="#f8cad4"/><path d="m56.605 27.18973a.10479.10479 0 0 1 .02738.00174v.5933l-.01355.0018-.01367-.00009z" fill="#fbdfe6"/><g fill="#ed6c87"><path d="m28.84689 56.63025-.9581.00092c-.43524-.0428-.87213-.07333-1.30521-.13209-.3836-.05205-.45584-.15847-.43435-.55291.07669-1.40785.14743-2.81609.23407-4.22334.15844-2.57334.32962-5.14589.48978-7.71913q.19017-3.05543.36653-6.11174c.15091-2.57511.30632-5.15.39682-7.72827a62.28281 62.28281 0 0 0 -.12673-7.1095c-.12643-1.59644-.21509-3.196-.31135-4.79472q-.19835-3.29447-.38276-6.58967c-.09224-1.59968-.17768-3.19977-.27614-4.79906q-.18207-2.95723-.38357-5.91323c-.05951-.85432.01611-.954.86768-.954 1.02365 0 2.04735.0052 3.07093-.00349a.418.418 0 0 1 .46.37136 4.64683 4.64683 0 0 1 -.01261 1.29614c-.08656 1.41873-.19126 2.83634-.28488 4.25466q-.18369 2.78313-.36119 5.56668c-.13348 2.06365-.26116 4.1277-.40126 6.1909-.19172 2.82333-.36252 5.64829-.64239 8.465a29.26137 29.26137 0 0 0 .07189 4.75308c.07382 1.16656.14 2.33365.22193 3.49963.15531 2.21006.32225 4.4193.479 6.62926.10673 1.50449.20314 3.00971.30634 4.51446q.32148 4.68755.6452 9.375c.02109.30656.04286.61308.061.91982a.55022.55022 0 0 1 -.52.65229c-.42201.05829-.84695.09554-1.27063.14195z"/><path d="m26.81358 27.39919a30.56828 30.56828 0 0 1 -.77062 5.986q-1.32437 6.51836-2.622 13.0422-.79925 3.98208-1.598 7.96426c-.05509.274-.11313.54793-.18489.81786a.41949.41949 0 0 1 -.55645.33856c-.93617-.20555-1.83064-.55155-2.74915-.81639-.126-.03632-.25058-.07748-.37529-.118-.548-.17811-.66092-.40791-.46877-.95693.3696-1.05606.74306-2.11077 1.10962-3.16789q2.39634-6.91072 4.78855-13.82288c.72934-2.10988 1.43958-4.22642 2.1744-6.33436a6.56287 6.56287 0 0 0 -.04693-4.28673c-.77164-2.371-1.613-4.71924-2.428-7.076q-2.75687-7.97257-5.51605-15.94436c-.23866-.69023-.0787-.97218.62258-1.178.92837-.27249 1.8526-.55919 2.77831-.84081.4308-.13107.64946-.00133.73424.434.44467 2.28318.88245 4.56774 1.33714 6.84891q1.64573 8.25682 3.30283 16.51137a18.31374 18.31374 0 0 1 .46848 2.59919z"/><path d="m39.15639 54.06051a.49166.49166 0 0 1 -.3818.50486q-1.65141.54057-3.31 1.05877c-.23205.07263-.34494-.08031-.39431-.28495-.323-1.33884-.6466-2.67806-.89584-4.03287-1.11787-6.07626-2.40995-12.11732-3.63056-18.17282-.2891-1.43423-.66726-2.85231-.82377-4.31171a10.0211 10.0211 0 0 1 .3073-3.09829c.4617-2.24391.94857-4.48261 1.41253-6.72606q.97065-4.69353 1.92-9.39146c.5575-2.78613 1.08892-5.57751 1.63048-8.36685.07764-.39988.24778-.50339.62521-.37328q1.59645.55035 3.19354 1.09883c.42218.1451.48658.28175.34106.70116q-1.51737 4.37341-3.03133 8.748-2.5674 7.46091-5.12457 14.92536a6.83258 6.83258 0 0 0 .1907 4.56456q1.74073 5.07822 3.49872 10.15049c1.449 4.19783 2.88387 8.40061 4.38183 12.58127a1.13725 1.13725 0 0 1 .09081.42499z"/><path d="m31.62934 28.39463a5.58008 5.58008 0 0 1 .60431-2.71265c1.19847-2.343 2.41361-4.67736 3.6162-7.01823 2.15428-4.19336 4.36562-8.35659 6.56026-12.52864q.37519-.71326.75407-1.42457c.178-.33453.35709-.37965.65332-.15512q1.342 1.01718 2.67922 2.04058c.31892.244.333.39211.07518.74594q-2.68533 3.68484-5.37248 7.36834-3.63512 4.98524-7.2663 9.97333a6.07627 6.07627 0 0 0 -1.33367 3.498 5.79345 5.79345 0 0 0 1.30865 3.5697c3.75752 5.04113 7.30741 10.23381 11.08159 15.26254.50971.67913 1.01164 1.36414 1.51852 2.04542.23061.31.22088.46041-.05915.7228a18.74374 18.74374 0 0 1 -2.5939 2.03831c-.40587.26417-.59166.218-.82313-.21619-1.56537-2.93619-3.1303-5.87253-4.65605-8.82986q-2.88432-5.59059-5.79159-11.16925a6.84031 6.84031 0 0 1 -.95505-3.21045z"/><path d="m24.93063 28.63322a6.07991 6.07991 0 0 1 -.86038 2.80965c-1.18311 2.24542-2.33558 4.50708-3.50755 6.75844q-3.46669 6.65952-6.94107 13.315c-.33565.64377-.38249.65229-1.00538.2615a16.7675 16.7675 0 0 1 -2.4953-1.92335.4219.4219 0 0 1 -.05624-.63572q4.87985-6.74189 9.75963-13.48381c1.11528-1.54076 2.26345-3.0588 3.338-4.62764a4.98437 4.98437 0 0 0 .30636-5.11075 13.45587 13.45587 0 0 0 -1.55614-2.33478c-.91589-1.27627-1.83309-2.55186-2.7695-3.813-3.06556-4.12858-6.06408-8.30634-9.09549-12.46-.21729-.29774-.1864-.48886.0882-.74093a27.04348 27.04348 0 0 1 2.81418-2.0742c.21985-.15488.40239-.08433.54957.19671.61556 1.17539 1.2263 2.35334 1.84492 3.5271 2.937 5.57276 5.81564 11.176 8.70428 16.774a7.01271 7.01271 0 0 1 .88191 3.56178z"/><path d="m33.54353 28.17614a4.08224 4.08224 0 0 1 1.29328-2.91236c1.53572-1.58829 3.11432-3.13484 4.6761-4.69773q4.66293-4.66624 9.32762-9.33068c.27519-.27513.55755-.54321.841-.8098.2749-.25851.4789-.241.69325.06334.65006.92285 1.29531 1.8491 1.94485 2.77233a.34219.34219 0 0 1 -.096.54523q-2.8184 2.0139-5.6332 4.03287-2.61881 1.88316-5.22954 3.77766c-1.86389 1.34591-3.73758 2.6784-5.59029 4.03962a3.24564 3.24564 0 0 0 .04031 5.19307q6.301 4.55513 12.61134 9.09725c1.24824.89864 2.50938 1.77924 3.76479 2.66786.26218.18559.30052.34362.13165.61246a22.02661 22.02661 0 0 1 -2.03808 2.74328c-.24934.28662-.37135.28159-.65.02078-1.46526-1.37154-2.8805-2.79391-4.29436-4.21837-2.275-2.2921-4.575-4.55926-6.84859-6.8528-.94982-.95816-1.92977-1.884-2.896-2.82459a9.21125 9.21125 0 0 1 -1.72205-2.31229 3.15339 3.15339 0 0 1 -.32608-1.60713z"/><path d="m23.02433 28.52112a4.40443 4.40443 0 0 1 -1.5111 2.96769q-3.46963 3.47469-6.96341 6.92508-2.89387 2.87231-5.79071 5.74159c-.59052.58754-1.164 1.19229-1.74447 1.79-.27782.28611-.4361.29378-.71122-.00026a14.652 14.652 0 0 1 -2.00818-2.69978.43739.43739 0 0 1 .15434-.666q3.4767-2.49462 6.95622-4.98527 4.73484-3.39087 9.469-6.78274a3.27556 3.27556 0 0 0 .54314-4.567 7.2436 7.2436 0 0 0 -1.70123-1.40684q-5.81729-4.18209-11.64285-8.35259c-1.20592-.86334-2.4232-1.71071-3.63531-2.56536-.29173-.20569-.32853-.35874-.13263-.62691q.99832-1.36663 2.00395-2.7279c.23153-.3129.40309-.32.68149-.04211q3.1205 3.11442 6.23953 6.23028 2.69911 2.6985 5.39447 5.40077c1.09362 1.093 2.2011 2.1723 3.28507 3.27487a4.1845 4.1845 0 0 1 1.1139 3.09248z"/><path d="m35.45511 28.13536a2.25877 2.25877 0 0 1 1.28018-1.95124c2.86605-1.42868 5.75385-2.81237 8.64037-4.19882 2.85677-1.37216 5.75553-2.65457 8.59652-4.06021.41244-.20407.64746-.112.8.32356q.53019 1.51416 1.05123 3.03153c.1095.31781.02617.46968-.301.56048q-8.67608 2.40786-17.352 4.81632a9.01193 9.01193 0 0 0 -.87338.28056 1.29964 1.29964 0 0 0 -.8513 1.31609 1.26265 1.26265 0 0 0 .97449 1.31907c1.68673.48142 3.37611.95353 5.06413 1.43041q6.13877 1.73421 12.27726 3.46934c.21011.05937.42046.11783.63068.1768a.46629.46629 0 0 1 .373.59583 16.68571 16.68571 0 0 1 -.94246 3.18241c-.14186.346-.33359.40561-.69815.23018q-2.89177-1.39161-5.78266-2.785-5.7454-2.76644-11.49021-5.53411a2.41514 2.41514 0 0 1 -1.3967-2.2032z"/><path d="m2.141 17.7316a1.67681 1.67681 0 0 1 .59471.22149c4.489 2.11239 8.95794 4.26686 13.42326 6.429 1.17171.56736 2.34221 1.13747 3.52009 1.69172a2.34965 2.34965 0 0 1 1.44713 2.04729 2.20069 2.20069 0 0 1 -1.20877 2.121c-.971.52588-1.9821.97778-2.97875 1.45558-4.82724 2.31423-9.67122 4.59371-14.4464 7.01588-.411.20849-.59177.13631-.75529-.29034a22.14924 22.14924 0 0 1 -.92977-3.12c-.085-.38165-.00133-.53334.38-.64184q3.39066-.96468 6.78239-1.92538 5.53776-1.55819 11.07792-3.10779a1.43394 1.43394 0 0 0 .80361-2.33071 1.67368 1.67368 0 0 0 -.88533-.50331q-6.57527-1.86381-13.15013-3.729-2.08128-.59053-4.161-1.1864c-.11009-.03151-.21578-.07851-.32345-.11848a.5199.5199 0 0 1 -.36122-.63726c.18821-1.037.48628-2.04745.75312-3.06523a.3895.3895 0 0 1 .41788-.32622z"/><path d="m56.605 27.18973.00016.59675q-.00528.99685-.01041 1.99371c-.0022.50127-.17832.66413-.674.6141-2.93711-.29646-5.87467-.58733-8.81618-.83779-2.4609-.20955-4.92044-.4354-7.38021-.658-.62024-.05613-1.23968-.12261-1.85834-.1943a.42926.42926 0 0 1 -.43373-.44853.45172.45172 0 0 1 .44756-.50529c.9468-.08458 1.89319-.17366 2.84011-.25681q2.817-.24736 5.63449-.49c1.4372-.124 2.87482-.24317 4.31191-.36847 1.5794-.13771 3.15835-.2807 4.73767-.41949.23383-.02055.46844-.03966.70293-.04307a.38877.38877 0 0 1 .42956.34688c.03542.22139.0466.44671.06848.67031z"/><path d="m.00159 28.31708c0-.56573-.00111-1.13146.00039-1.69718.001-.36864.114-.46062.48357-.42766q2.671.2382 5.34263.46954 3.10418.26865 6.20888.53115c2.16719.18115 4.33511.35354 6.50229.53484a.62282.62282 0 0 1 .55869.25523.47076.47076 0 0 1 -.35912.71582c-.86834.09834-1.73854.18088-2.6087.26217-1.49064.13924-2.982.27105-4.47275.40892-1.95842.18113-3.917.36009-5.8747.54934-1.75686.16984-3.5124.35343-5.26877.52843-.38633.03849-.51808-.09631-.5139-.4835.0059-.54898.0015-1.09806.00149-1.6471z"/></g></svg>