<svg width="1485" height="280" viewBox="0 0 1485 280" fill="none" xmlns="http://www.w3.org/2000/svg">
<g clip-path="url(#clip0_15_24)">
<path d="M142.727 279.86L142.715 280H138.005L137.991 279.865L142.727 279.86Z" fill="#FF6C87"/>
<path d="M279.962 134.373C280.007 134.371 280.053 134.373 280.097 134.382V137.314L280.03 137.323L279.963 137.322L279.962 134.373Z" fill="#FF6C87"/>
<path d="M142.736 279.856L138 279.861C135.847 279.649 133.688 279.498 131.546 279.208C129.65 278.951 129.293 278.425 129.399 276.476C129.778 269.519 130.128 262.56 130.556 255.605C131.339 242.889 132.186 230.176 132.978 217.46C133.604 207.395 134.208 197.328 134.79 187.259C135.536 174.534 136.304 161.809 136.752 149.069C137.212 137.356 137.003 125.626 136.125 113.937C135.5 106.047 135.061 98.1433 134.585 90.2427C133.932 79.3891 133.301 68.5349 132.693 57.6792C132.237 49.7742 131.815 41.8672 131.328 33.9641C130.728 24.2218 130.096 14.4815 129.432 4.7432C129.138 0.521486 129.512 0.0289068 133.721 0.0289068C138.782 0.0289068 143.844 0.0546032 148.904 0.0116606C149.174 -0.0171244 149.447 0.00751071 149.707 0.0841589C149.968 0.160808 150.21 0.287968 150.422 0.458378C150.633 0.628789 150.808 0.839114 150.938 1.07734C151.068 1.31556 151.15 1.57702 151.178 1.84678C151.457 3.97421 151.436 6.13018 151.116 8.2518C150.688 15.2626 150.17 22.2679 149.707 29.2767C149.102 38.4454 148.507 47.6148 147.922 56.785C147.262 66.9825 146.631 77.1823 145.938 87.3782C144.99 101.33 144.146 115.29 142.762 129.209C142.243 137.035 142.362 144.89 143.118 152.696C143.482 158.461 143.81 164.228 144.215 169.991C144.983 180.912 145.808 191.829 146.583 202.749C147.111 210.184 147.587 217.623 148.097 225.058C149.157 240.501 150.221 255.943 151.287 271.386C151.391 272.901 151.499 274.416 151.589 275.932C151.662 276.316 151.65 276.712 151.557 277.091C151.462 277.472 151.287 277.826 151.043 278.132C150.799 278.439 150.492 278.689 150.142 278.864C149.793 279.041 149.409 279.14 149.018 279.155C146.932 279.443 144.831 279.627 142.736 279.856Z" fill="#FF6C87"/>
<path d="M132.672 135.417C132.382 145.379 131.106 155.287 128.862 164.998C124.498 186.472 120.177 207.955 115.9 229.447C113.265 242.565 110.632 255.684 107.999 268.803C107.727 270.157 107.44 271.511 107.085 272.845C107.043 273.15 106.935 273.443 106.765 273.701C106.597 273.959 106.372 274.176 106.108 274.336C105.844 274.496 105.549 274.596 105.242 274.627C104.935 274.659 104.625 274.621 104.334 274.518C99.706 273.502 95.2839 271.792 90.7427 270.483C90.1196 270.304 89.5036 270.1 88.8869 269.901C86.1781 269.02 85.6194 267.885 86.5694 265.172C88.3966 259.953 90.2433 254.741 92.0555 249.517C99.9534 226.751 107.845 203.981 115.73 181.21C119.335 170.784 122.847 160.325 126.48 149.908C128.777 143.02 128.695 135.561 126.248 128.725C122.433 117.008 118.273 105.404 114.244 93.7577C105.158 67.4931 96.0673 41.2295 86.9731 14.9671C85.7932 11.5563 86.5837 10.163 90.0512 9.1459C94.6406 7.79936 99.2098 6.38262 103.787 4.99096C105.917 4.34327 106.998 4.98439 107.417 7.13563C109.615 18.4182 111.78 29.7076 114.028 40.9803C119.452 68.1814 124.895 95.3791 130.356 122.573C131.436 126.793 132.211 131.086 132.672 135.417Z" fill="#FF6C87"/>
<path d="M193.703 267.155C193.733 267.726 193.559 268.29 193.214 268.746C192.869 269.202 192.373 269.522 191.815 269.65C186.372 271.43 180.917 273.175 175.451 274.881C174.303 275.241 173.745 274.485 173.501 273.473C171.904 266.858 170.304 260.239 169.072 253.545C163.545 223.518 157.157 193.666 151.123 163.741C149.694 156.654 147.824 149.646 147.05 142.435C146.756 137.283 147.268 132.118 148.569 127.125C150.852 116.036 153.259 104.973 155.553 93.8866C158.752 78.4241 161.916 62.9547 165.046 47.4778C167.801 33.7098 170.429 19.9159 173.106 6.13209C173.49 4.15604 174.331 3.64453 176.197 4.28749C181.459 6.10056 186.722 7.91054 191.986 9.71745C194.073 10.4345 194.392 11.1098 193.672 13.1823C188.671 27.5901 183.675 41.9998 178.686 56.4116C170.224 80.991 161.778 105.576 153.35 130.167C151.066 137.571 151.399 145.535 154.293 152.723C160.03 169.453 165.796 186.173 171.59 202.883C178.754 223.627 185.848 244.395 193.253 265.055C193.537 265.719 193.69 266.432 193.703 267.155Z" fill="#FF6C87"/>
<path d="M156.484 140.32C156.333 135.672 157.361 131.061 159.472 126.916C165.397 115.337 171.405 103.802 177.35 92.2346C188.001 71.5126 198.933 50.9393 209.784 30.3227C211.02 27.9729 212.263 25.6263 213.512 23.283C214.392 21.6299 215.278 21.4069 216.742 22.5165C221.165 25.8675 225.58 29.2287 229.988 32.6002C231.565 33.806 231.634 34.5379 230.359 36.2863C221.509 48.4257 212.655 60.5629 203.798 72.6977C191.817 89.1214 179.842 105.55 167.874 121.982C163.911 126.907 161.604 132.956 161.281 139.268C161.391 145.708 163.67 151.923 167.751 156.908C186.328 181.819 203.878 207.479 222.537 232.33C225.057 235.686 227.538 239.07 230.045 242.437C231.185 243.969 231.137 244.712 229.752 246.009C225.782 249.737 221.49 253.107 216.928 256.081C214.921 257.387 214.003 257.158 212.859 255.013C205.119 240.504 197.382 225.993 189.839 211.379C180.333 192.962 170.788 174.564 161.206 156.185C158.341 151.37 156.719 145.918 156.484 140.32Z" fill="#FF6C87"/>
<path d="M123.367 141.496C123.106 146.402 121.646 151.169 119.113 155.38C113.264 166.476 107.566 177.653 101.772 188.778C90.3463 210.717 78.9073 232.649 67.4559 254.575C65.7968 257.757 65.5649 257.799 62.4855 255.868C58.084 253.093 53.9536 249.911 50.1489 246.364C49.9062 246.188 49.7039 245.963 49.556 245.703C49.408 245.443 49.3178 245.154 49.2914 244.856C49.265 244.558 49.3031 244.258 49.4031 243.976C49.5031 243.694 49.6626 243.437 49.8709 243.222C65.955 221.011 82.0381 198.801 98.1218 176.59C103.636 168.976 109.312 161.475 114.625 153.722C117.139 150.043 118.607 145.751 118.874 141.304C119.141 136.856 118.196 132.42 116.139 128.467C113.984 124.364 111.406 120.496 108.446 116.929C103.918 110.622 99.3831 104.319 94.754 98.0866C79.5975 77.685 64.7733 57.0401 49.7862 36.5144C48.7119 35.0431 48.8646 34.0986 50.2222 32.853C54.6339 29.14 59.2813 25.7162 64.1353 22.6031C65.2224 21.8377 66.1249 22.1864 66.8523 23.5752C69.8958 29.3835 72.9153 35.2045 75.9738 41.0047C90.4941 68.5434 104.726 96.2321 119.007 123.895C121.997 129.271 123.502 135.346 123.367 141.496Z" fill="#FF6C87"/>
<path d="M165.95 139.245C165.996 136.54 166.586 133.873 167.684 131.4C168.783 128.928 170.367 126.701 172.344 124.853C179.936 117.005 187.741 109.362 195.462 101.639C210.831 86.2667 226.203 70.8973 241.577 55.5305C242.938 54.1708 244.334 52.8461 245.735 51.5287C247.095 50.2513 248.103 50.3378 249.163 51.8417C252.376 56.4021 255.566 60.9793 258.778 65.5415C258.963 65.7336 259.101 65.9667 259.179 66.2213C259.257 66.4766 259.273 66.7468 259.227 67.0092C259.181 67.2723 259.073 67.5204 258.913 67.7333C258.752 67.9469 258.543 68.1188 258.303 68.236C249.014 74.8707 239.731 81.5132 230.453 88.1648C221.822 94.3685 213.204 100.591 204.599 106.832C195.384 113.483 186.12 120.068 176.961 126.794C174.979 128.304 173.377 130.253 172.28 132.489C171.183 134.725 170.622 137.186 170.641 139.676C170.661 142.166 171.26 144.617 172.391 146.835C173.522 149.054 175.156 150.979 177.16 152.457C197.927 167.463 218.711 182.448 239.509 197.412C245.681 201.853 251.916 206.204 258.122 210.595C259.419 211.513 259.608 212.293 258.773 213.622C255.771 218.395 252.402 222.927 248.697 227.178C247.465 228.595 246.861 228.57 245.484 227.281C238.24 220.503 231.243 213.475 224.253 206.435C213.005 195.109 201.634 183.905 190.393 172.571C185.698 167.837 180.853 163.261 176.076 158.613C172.656 155.275 169.782 151.419 167.562 147.187C166.334 144.728 165.777 141.988 165.95 139.245Z" fill="#FF6C87"/>
<path d="M113.953 140.952C113.479 146.629 110.797 151.895 106.482 155.617C95.0463 167.064 83.5709 178.471 72.0557 189.838C62.5174 199.301 52.9745 208.758 43.4266 218.211C40.507 221.114 37.6718 224.103 34.802 227.057C33.4285 228.47 32.6459 228.508 31.2858 227.055C27.4747 223.004 24.1434 218.527 21.3574 213.714C21.156 213.46 21.0145 213.163 20.9434 212.846C20.8723 212.53 20.8734 212.201 20.9467 211.884C21.0199 211.569 21.1635 211.273 21.3668 211.02C21.57 210.767 21.8276 210.563 22.1205 210.423C33.5796 202.204 45.0433 193.992 56.5116 185.788C72.1176 174.616 87.7221 163.444 103.326 152.27C106.65 149.615 108.795 145.759 109.298 141.536C109.8 137.313 108.619 133.062 106.011 129.702C103.579 126.968 100.743 124.623 97.6002 122.749C78.4267 108.972 59.2396 95.2136 40.0387 81.4741C34.0767 77.2077 28.0586 73.0207 22.066 68.7973C20.6237 67.7808 20.4417 67.0242 21.4103 65.699C24.7007 61.197 28.0031 56.7036 31.3177 52.219C32.4623 50.6728 33.3105 50.6378 34.6869 52.0109C44.9719 62.2711 55.2546 72.5336 65.535 82.7986C74.4312 91.6882 83.3209 100.584 92.2047 109.487C97.6113 114.889 103.087 120.222 108.446 125.67C110.348 127.714 111.817 130.122 112.763 132.748C113.71 135.374 114.114 138.165 113.953 140.952Z" fill="#FF6C87"/>
<path d="M175.407 139.046C175.484 137.015 176.114 135.043 177.23 133.344C178.345 131.645 179.903 130.283 181.736 129.404C195.906 122.344 210.183 115.506 224.454 108.654C238.578 101.874 252.909 95.5367 266.955 88.5907C268.993 87.5821 270.156 88.0372 270.91 90.1893C272.657 95.1779 274.39 100.172 276.107 105.17C276.648 106.741 276.236 107.491 274.619 107.94C246.023 115.872 217.427 123.806 188.831 131.74C187.369 132.129 185.928 132.592 184.513 133.127C183.199 133.605 182.077 134.499 181.318 135.673C180.558 136.846 180.203 138.236 180.305 139.63C180.2 141.112 180.627 142.583 181.511 143.777C182.394 144.972 183.675 145.813 185.122 146.148C193.462 148.528 201.814 150.861 210.16 153.217C230.392 158.931 250.625 164.645 270.857 170.361C271.896 170.655 272.936 170.943 273.975 171.235C274.3 171.286 274.611 171.408 274.886 171.589C275.16 171.771 275.392 172.009 275.568 172.288C275.742 172.567 275.855 172.88 275.898 173.206C275.942 173.532 275.915 173.864 275.82 174.18C274.793 179.563 273.232 184.831 271.16 189.906C270.459 191.615 269.51 191.91 267.709 191.043C258.177 186.459 248.648 181.871 239.119 177.28C220.183 168.167 201.247 159.051 182.313 149.933C180.239 148.97 178.487 147.432 177.263 145.502C176.039 143.572 175.395 141.331 175.407 139.046Z" fill="#FF6C87"/>
<path d="M10.6993 87.6343C11.7402 87.8088 12.7381 88.1806 13.6396 88.7289C35.8329 99.1677 57.9271 109.814 80.0032 120.498C85.7959 123.302 91.5828 126.119 97.4062 128.858C99.4332 129.697 101.18 131.093 102.447 132.884C103.713 134.674 104.446 136.786 104.561 138.975C104.711 141.117 104.224 143.255 103.16 145.12C102.096 146.985 100.505 148.494 98.5848 149.456C93.7844 152.055 88.7854 154.288 83.8581 156.649C59.9926 168.085 36.0442 179.35 12.4361 191.319C10.404 192.349 9.51038 191.993 8.70189 189.884C6.79334 184.865 5.25697 179.711 4.10519 174.466C3.68496 172.58 4.09862 171.831 5.98389 171.295C17.1594 168.117 28.3366 164.945 39.5156 161.78C57.7679 156.647 76.0239 151.528 94.2845 146.423C95.4878 146.174 96.6059 145.616 97.5292 144.804C98.4519 143.993 99.148 142.955 99.5485 141.793C99.9496 140.632 100.041 139.387 99.8148 138.179C99.5882 136.971 99.0517 135.843 98.2572 134.905C97.0923 133.642 95.5621 132.773 93.8801 132.418C72.2081 126.278 50.5372 120.136 28.8667 113.991C22.0069 112.046 15.1496 110.091 8.29498 108.128C7.75068 107.973 7.22818 107.74 6.69586 107.543C6.04267 107.359 5.48839 106.926 5.15386 106.336C4.81932 105.746 4.73168 105.048 4.91002 104.394C5.84052 99.2693 7.31414 94.2761 8.63339 89.2466C8.71062 88.7667 8.96646 88.3336 9.34967 88.0347C9.73288 87.7359 10.215 87.5926 10.6993 87.6343Z" fill="#FF6C87"/>
<path d="M279.966 134.38L279.967 137.329C279.95 140.613 279.932 143.897 279.915 147.182C279.905 149.659 279.034 150.463 276.583 150.216C262.062 148.751 247.54 147.314 232.996 146.076C220.83 145.041 208.67 143.924 196.509 142.825C193.443 142.547 190.38 142.218 187.322 141.864C187.033 141.867 186.747 141.812 186.48 141.701C186.214 141.589 185.973 141.425 185.772 141.218C185.571 141.011 185.415 140.764 185.312 140.494C185.21 140.224 185.165 139.936 185.178 139.648C185.14 139.335 185.169 139.018 185.264 138.717C185.357 138.416 185.514 138.139 185.723 137.903C185.932 137.667 186.189 137.478 186.476 137.348C186.763 137.219 187.075 137.152 187.39 137.151C192.071 136.733 196.75 136.293 201.431 135.882C210.716 135.067 220.002 134.26 229.288 133.46C236.394 132.848 243.501 132.259 250.606 131.64C258.415 130.959 266.221 130.253 274.029 129.567C275.185 129.465 276.344 129.371 277.504 129.354C277.756 129.326 278.011 129.348 278.255 129.419C278.498 129.491 278.726 129.609 278.923 129.769C279.12 129.928 279.284 130.125 279.405 130.348C279.526 130.571 279.601 130.816 279.628 131.068C279.803 132.162 279.858 133.275 279.966 134.38Z" fill="#FF6C87"/>
<path d="M0.122313 139.949C0.122313 137.154 0.116825 134.358 0.124241 131.563C0.129184 129.741 0.687852 129.286 2.51498 129.449C11.3185 130.234 20.123 131.007 28.9286 131.769C39.1598 132.655 49.3919 133.529 59.6249 134.394C70.3393 135.29 81.0574 136.141 91.7716 137.037C92.3023 136.991 92.835 137.083 93.3194 137.304C93.8033 137.525 94.222 137.867 94.5339 138.299C94.7422 138.636 94.8601 139.021 94.8777 139.417C94.8946 139.814 94.8106 140.208 94.6328 140.562C94.4551 140.916 94.1894 141.219 93.8612 141.442C93.533 141.665 93.1534 141.8 92.7588 141.836C88.4657 142.322 84.1634 142.73 79.8612 143.131C72.4914 143.82 65.1182 144.471 57.7482 145.152C48.066 146.047 38.3829 146.932 28.7041 147.867C20.0183 148.706 11.339 149.613 2.65563 150.478C0.745643 150.668 0.09428 150.002 0.114946 148.089C0.144115 145.376 0.122362 142.663 0.122313 139.949Z" fill="#FF6C87"/>
<path d="M1461.86 214.884C1474.43 214.884 1484.65 225.109 1484.65 237.674C1484.65 250.24 1474.43 260.465 1461.86 260.465C1449.29 260.465 1439.07 250.24 1439.07 237.674C1439.07 225.109 1449.29 214.884 1461.86 214.884ZM1465.8 249.994C1465.44 249.193 1464.88 247.9 1464.32 246.729L1461.24 240.077H1458.35V245.559C1458.35 246.853 1458.41 249.316 1458.41 249.994H1452.99C1452.99 249.316 1453.05 246.853 1453.05 245.559V225.355H1463.59C1467.65 225.355 1470.98 228.681 1470.98 232.746C1470.98 235.703 1469.8 237.859 1467.22 239.153C1466.85 239.338 1466.17 239.522 1465.99 239.461L1465.92 239.584C1466.17 239.707 1466.54 240.138 1466.72 240.508L1469.37 245.99C1470.12 247.53 1471.28 249.994 1471.28 249.994H1465.8ZM1463.21 230.283H1458.35V235.149H1463.21C1464.57 235.149 1465.68 234.102 1465.68 232.746C1465.68 231.391 1464.57 230.283 1463.21 230.283ZM1461.86 219.812C1452.19 219.812 1444.37 227.819 1444.37 237.674C1444.37 247.53 1452.19 255.537 1461.86 255.537C1471.53 255.537 1479.35 247.53 1479.35 237.674C1479.35 227.819 1471.53 219.812 1461.86 219.812Z" fill="white"/>
<path d="M438.197 198.93V170.279C431.028 163.442 415.062 156.279 399.097 156.279C377.266 156.279 365.862 168.977 365.862 181.675C365.862 194.372 377.266 207.721 402.681 207.721C416.366 207.721 430.376 203.814 438.197 198.93ZM475.015 129.907V216.186C462.308 227.907 433.635 238.326 402.355 238.326C348.593 238.326 325.784 207.721 325.784 180.047C325.784 151.396 349.896 126.326 390.299 126.326C406.917 126.326 427.118 130.558 438.197 140.977V121.768C438.197 106.14 429.725 96.3723 402.029 96.3723C380.85 96.3723 364.884 102.233 356.087 105.814L344.357 77.8142C358.694 70.977 378.895 64.4653 406.265 64.4653C460.679 64.4653 475.015 90.1863 475.015 129.907Z" fill="white"/>
<path d="M633.048 187.861L645.43 214.558C637.936 222.047 617.734 238.326 580.59 238.326C541.816 238.326 495.548 205.768 495.548 151.396C495.548 101.582 536.602 64.4653 584.499 64.4653C612.521 64.4653 635.004 78.1398 640.542 83.6746L625.88 112.651C621.319 108.419 606.33 96.6979 586.129 96.6979C559.736 96.6979 535.299 116.233 535.299 151.721C535.299 183.954 557.781 206.744 586.129 206.744C611.87 206.744 627.509 194.047 633.048 187.861Z" fill="white"/>
<path d="M719.242 233.442H680.791V100.605H649.839V69.3489H680.791V13.0233H719.242V69.3489H759.646V100.605H719.242V233.442Z" fill="white"/>
<path d="M912.227 189.163L924.28 216.512C915.483 224.326 889.742 238.326 854.879 238.326C800.461 238.326 763.97 204.465 763.97 152.372C763.97 101.582 798.508 64.4653 849.989 64.4653C903.43 64.4653 930.147 104.186 930.147 149.768V165.721H803.724C806.003 186.884 825.225 206.419 861.397 206.419C886.812 206.419 903.43 196 912.227 189.163ZM804.049 134.791H890.068C889.091 113.303 874.753 94.7444 849.338 94.7444C826.86 94.7444 806.98 109.07 804.049 134.791Z" fill="white"/>
<path d="M1022.1 240.93H1008.09L927.933 69.0231H970.617L1006.46 153.023C1011.35 164.418 1013.63 169.953 1014.93 177.442H1015.59C1016.56 169.953 1018.52 164.744 1023.41 153.023L1058.92 69.0231H1100.95L1022.1 240.93Z" fill="white"/>
<path d="M1257.82 233.442H1219.37V143.907C1219.37 115.256 1214.16 98.3258 1187.44 98.3258C1171.47 98.3258 1154.86 110.372 1149.64 117.21V233.442H1111.2V69.0235H1149.64V85.9537C1158.11 78.1398 1177.01 64.4653 1202.42 64.4653C1238.27 64.4653 1257.82 82.3723 1257.82 123.721V233.442Z" fill="white"/>
<path d="M1389.18 198.93V170.279C1382.01 163.442 1366.04 156.279 1350.08 156.279C1328.25 156.279 1316.84 168.977 1316.84 181.675C1316.84 194.372 1328.25 207.721 1353.66 207.721C1367.34 207.721 1381.36 203.814 1389.18 198.93ZM1425.99 129.907V216.186C1413.29 227.907 1384.61 238.326 1353.34 238.326C1299.57 238.326 1276.77 207.721 1276.77 180.047C1276.77 151.396 1300.87 126.326 1341.28 126.326C1357.9 126.326 1378.1 130.558 1389.18 140.977V121.768C1389.18 106.14 1380.71 96.3723 1353.01 96.3723C1331.83 96.3723 1315.86 102.233 1307.07 105.814L1295.34 77.8142C1309.68 70.977 1329.88 64.4653 1357.24 64.4653C1411.66 64.4653 1425.99 90.1863 1425.99 129.907Z" fill="white"/>
</g>
<defs>
<clipPath id="clip0_15_24">
<rect width="1484.65" height="280" fill="white"/>
</clipPath>
</defs>
</svg>
