<?xml version="1.0" encoding="UTF-8"?>
<svg id="Layer_2" data-name="Layer 2" xmlns="http://www.w3.org/2000/svg" viewBox="0 0 726.9 255.46">
  <defs>
    <style>
      .cls-1 {
        fill: #303030;
        stroke-width: 0px;
      }
    </style>
  </defs>
  <g id="Layer_1-2" data-name="Layer 1">
    <g>
      <g>
        <path class="cls-1" d="M97.89,175.87c-9.15,7.87-24.68,14.04-46.18,14.04-31.28,0-45.54-18.09-45.54-37.88,0-23.83,24.26-33.83,43.2-33.83,10,0,21.92,2.77,30.43,10.21v-12.98c0-11.49-8.73-20-25.96-20-13.62,0-25.54,4.47-29.15,6.17l-6.17-14.04c8.09-3.62,20.22-8.09,36.39-8.09,34.26,0,42.99,16.17,42.99,40.43v55.97ZM79.8,144.81c-5.53-4.89-15.32-10.64-27.88-10.64-17.66,0-26.39,9.15-26.39,19.37s9.36,20.43,27.45,20.43c11.49,0,20.64-2.98,26.81-7.24v-21.92Z"/>
        <path class="cls-1" d="M203.86,173.11c-6.81,8.72-20.43,16.81-41.07,16.81-30.86,0-54.26-23.83-54.26-55.12s23.62-55.33,55.97-55.33c18.94,0,32.56,9.79,35.96,13.19l-8.09,13.62c-2.77-2.77-12.98-11.07-27.66-11.07-18.3,0-36.6,13.62-36.6,39.79,0,23.83,16.81,39.16,37.03,39.16,17.02,0,26.81-6.81,31.71-12.34l7.02,11.28Z"/>
        <path class="cls-1" d="M222.37,186.94v-88.95h-19.36v-15.53h19.36v-36.39h18.73v36.39h25.75v15.53h-25.75v88.95h-18.73Z"/>
        <path class="cls-1" d="M364.3,173.96c-5.96,7.87-22.56,15.96-44.05,15.96-31.92,0-54.9-21.71-54.9-54.69s21.92-55.75,53.84-55.75,48.31,25.75,48.31,53.41v5.53h-83.2c0,2.55.43,5.11.64,6.38,3.83,21.07,20.64,29.58,39.37,29.58,17.45,0,28.73-7.87,33.41-12.98l6.6,12.56ZM348.56,122.89c-2.77-15.96-11.49-28.09-29.79-28.09-15.75,0-29.58,8.51-33.83,28.09h63.63Z"/>
        <path class="cls-1" d="M412.18,189.07l-48.31-106.83h20.43l26.17,61.5c1.92,3.83,4.68,11.7,5.75,15.75h.21c.85-4.04,3.62-11.07,5.53-15.75l25.75-61.5h20.22l-47.67,106.83h-8.09Z"/>
        <path class="cls-1" d="M543.69,186.94v-59.58c0-20.43-5.53-30.86-24.47-30.86-12.77,0-24.05,8.3-28.09,13.19v77.25h-18.73v-104.7h18.73v11.07c5.53-5.11,17.45-13.83,34.47-13.83,23.62,0,36.81,11.92,36.81,38.52v68.95h-18.73Z"/>
        <path class="cls-1" d="M663.92,175.87c-9.15,7.87-24.68,14.04-46.18,14.04-31.28,0-45.54-18.09-45.54-37.88,0-23.83,24.26-33.83,43.2-33.83,10,0,21.92,2.77,30.43,10.21v-12.98c0-11.49-8.73-20-25.96-20-13.62,0-25.54,4.47-29.15,6.17l-6.17-14.04c8.09-3.62,20.22-8.09,36.39-8.09,34.26,0,42.98,16.17,42.98,40.43v55.97ZM645.83,144.81c-5.53-4.89-15.32-10.64-27.88-10.64-17.66,0-26.39,9.15-26.39,19.37s9.36,20.43,27.45,20.43c11.49,0,20.64-2.98,26.81-7.24v-21.92Z"/>
      </g>
      <path class="cls-1" d="M676.4,72.18c0-13.87,11.35-25.21,25.21-25.21s25.28,11.35,25.28,25.21-11.35,25.28-25.28,25.28-25.21-11.35-25.21-25.28ZM722.7,72.18c0-11.56-9.45-21.22-21.08-21.22s-20.94,9.67-20.94,21.22,9.31,21.29,20.94,21.29,21.08-9.67,21.08-21.29ZM701.48,74.35h-3.22v9.39c0,1.12-.98,2.03-2.1,2.03-1.19,0-2.1-.91-2.1-2.03v-22.41c0-1.4,1.12-2.52,2.52-2.52h6.3c4.34,0,7.84,3.29,7.84,7.91,0,2.31-.77,4.2-2.17,5.6-.77.7-1.68,1.26-2.73,1.61l4.76,8.75c.21.42.35.84.35,1.19,0,1.05-.84,1.96-2.03,1.96-.77,0-1.4-.42-1.82-1.12l-5.6-10.37ZM702.88,70.36c2.45,0,3.71-1.19,3.71-3.64s-1.33-3.85-3.71-3.85h-4.62v7.49h4.62Z"/>
    </g>
  </g>
</svg>