<?xml version="1.0" encoding="UTF-8" standalone="no" ?>
<!DOCTYPE svg PUBLIC "-//W3C//DTD SVG 1.1//EN" "http://www.w3.org/Graphics/SVG/1.1/DTD/svg11.dtd">
<svg xmlns="http://www.w3.org/2000/svg" xmlns:xlink="http://www.w3.org/1999/xlink" version="1.1" width="1080" height="1080" viewBox="0 0 1080 1080" xml:space="preserve">
<desc>Created with Fabric.js 5.2.4</desc>
<defs>
</defs>
<g transform="matrix(1 0 0 1 540 540)" id="ed9daf4e-b869-436e-994a-8a6014b63e69"  >
<rect style="stroke: none; stroke-width: 1; stroke-dasharray: none; stroke-linecap: butt; stroke-dashoffset: 0; stroke-linejoin: miter; stroke-miterlimit: 4; fill: rgb(255,255,255); fill-rule: nonzero; opacity: 1; visibility: hidden;" vector-effect="non-scaling-stroke"  x="-540" y="-540" rx="0" ry="0" width="1080" height="1080" />
</g>
<g transform="matrix(1 0 0 1 540 540)" id="b9836f37-1dcc-47da-a648-879bd25b4d35"  >
</g>
<g transform="matrix(1 0 0 1 540 540)"  >
<g style="" vector-effect="non-scaling-stroke"   >
		<g transform="matrix(1 0 0 1 -314.5 16.69)"  >
<path style="stroke: none; stroke-width: 0; stroke-dasharray: none; stroke-linecap: butt; stroke-dashoffset: 0; stroke-linejoin: miter; stroke-miterlimit: 4; fill: rgb(255,255,255); fill-rule: nonzero; opacity: 1;" vector-effect="non-scaling-stroke"  transform=" translate(-52.04, -134.69)" d="M 97.89 175.87 C 88.74 183.74 73.21000000000001 189.91 51.71 189.91 C 20.43 189.91 6.170000000000002 171.82 6.170000000000002 152.03 C 6.170000000000002 128.2 30.430000000000003 118.2 49.370000000000005 118.2 C 59.370000000000005 118.2 71.29 120.97 79.80000000000001 128.41 L 79.80000000000001 115.42999999999999 C 79.80000000000001 103.94 71.07000000000001 95.42999999999999 53.84000000000001 95.42999999999999 C 40.22000000000001 95.42999999999999 28.30000000000001 99.89999999999999 24.690000000000012 101.6 L 18.52000000000001 87.56 C 26.61000000000001 83.94 38.74000000000001 79.47 54.91000000000001 79.47 C 89.17000000000002 79.47 97.9 95.64 97.9 119.9 L 97.9 175.87 Z M 79.8 144.81 C 74.27 139.92000000000002 64.47999999999999 134.17000000000002 51.92 134.17000000000002 C 34.260000000000005 134.17000000000002 25.53 143.32000000000002 25.53 153.54000000000002 C 25.53 163.76000000000002 34.89 173.97000000000003 52.980000000000004 173.97000000000003 C 64.47 173.97000000000003 73.62 170.99000000000004 79.79 166.73000000000002 L 79.79 144.81 Z" stroke-linecap="round" />
</g>
		<g transform="matrix(1 0 0 1 -210.33 16.7)"  >
<path style="stroke: none; stroke-width: 0; stroke-dasharray: none; stroke-linecap: butt; stroke-dashoffset: 0; stroke-linejoin: miter; stroke-miterlimit: 4; fill: rgb(255,255,255); fill-rule: nonzero; opacity: 1;" vector-effect="non-scaling-stroke"  transform=" translate(-156.2, -134.7)" d="M 203.86 173.11 C 197.05 181.83 183.43 189.92000000000002 162.79000000000002 189.92000000000002 C 131.93 189.92000000000002 108.53000000000003 166.09000000000003 108.53000000000003 134.8 C 108.53000000000003 103.50999999999999 132.15000000000003 79.47000000000001 164.50000000000003 79.47000000000001 C 183.44000000000003 79.47000000000001 197.06000000000003 89.26000000000002 200.46000000000004 92.66000000000001 L 192.37000000000003 106.28000000000002 C 189.60000000000002 103.51000000000002 179.39000000000004 95.21000000000001 164.71000000000004 95.21000000000001 C 146.41000000000003 95.21000000000001 128.11000000000004 108.83000000000001 128.11000000000004 135 C 128.11000000000004 158.82999999999998 144.92000000000004 174.16 165.14000000000004 174.16 C 182.16000000000005 174.16 191.95000000000005 167.35 196.85000000000005 161.82 L 203.87000000000006 173.1 Z" stroke-linecap="round" />
</g>
		<g transform="matrix(1 0 0 1 -131.6 -1.49)"  >
<path style="stroke: none; stroke-width: 0; stroke-dasharray: none; stroke-linecap: butt; stroke-dashoffset: 0; stroke-linejoin: miter; stroke-miterlimit: 4; fill: rgb(255,255,255); fill-rule: nonzero; opacity: 1;" vector-effect="non-scaling-stroke"  transform=" translate(-234.93, -116.5)" d="M 222.37 186.94 L 222.37 97.99 L 203.01 97.99 L 203.01 82.46 L 222.37 82.46 L 222.37 46.06999999999999 L 241.1 46.06999999999999 L 241.1 82.46 L 266.85 82.46 L 266.85 97.99 L 241.10000000000002 97.99 L 241.10000000000002 186.94 L 222.37000000000003 186.94 Z" stroke-linecap="round" />
</g>
		<g transform="matrix(1 0 0 1 -50.1 16.71)"  >
<path style="stroke: none; stroke-width: 0; stroke-dasharray: none; stroke-linecap: butt; stroke-dashoffset: 0; stroke-linejoin: miter; stroke-miterlimit: 4; fill: rgb(255,255,255); fill-rule: nonzero; opacity: 1;" vector-effect="non-scaling-stroke"  transform=" translate(-316.43, -134.7)" d="M 364.3 173.96 C 358.34000000000003 181.83 341.74 189.92000000000002 320.25 189.92000000000002 C 288.33 189.92000000000002 265.35 168.21 265.35 135.23000000000002 C 265.35 102.25000000000003 287.27000000000004 79.48000000000002 319.19000000000005 79.48000000000002 C 351.11000000000007 79.48000000000002 367.50000000000006 105.23000000000002 367.50000000000006 132.89000000000001 L 367.50000000000006 138.42000000000002 L 284.30000000000007 138.42000000000002 C 284.30000000000007 140.97000000000003 284.7300000000001 143.53000000000003 284.94000000000005 144.8 C 288.77000000000004 165.87 305.58000000000004 174.38 324.31000000000006 174.38 C 341.76000000000005 174.38 353.0400000000001 166.51 357.72 161.4 L 364.32000000000005 173.96 Z M 348.56 122.89 C 345.79 106.93 337.07 94.8 318.77 94.8 C 303.02 94.8 289.19 103.31 284.94 122.89 L 348.57 122.89 Z" stroke-linecap="round" />
</g>
		<g transform="matrix(1 0 0 1 49.37 17.66)"  >
<path style="stroke: none; stroke-width: 0; stroke-dasharray: none; stroke-linecap: butt; stroke-dashoffset: 0; stroke-linejoin: miter; stroke-miterlimit: 4; fill: rgb(255,255,255); fill-rule: nonzero; opacity: 1;" vector-effect="non-scaling-stroke"  transform=" translate(-415.9, -135.66)" d="M 412.18 189.07 L 363.87 82.24 L 384.3 82.24 L 410.47 143.74 C 412.39000000000004 147.57000000000002 415.15000000000003 155.44 416.22 159.49 L 416.43 159.49 C 417.28000000000003 155.45000000000002 420.05 148.42000000000002 421.96 143.74 L 447.71 82.24000000000001 L 467.92999999999995 82.24000000000001 L 420.25999999999993 189.07 L 412.16999999999996 189.07 Z" stroke-linecap="round" />
</g>
		<g transform="matrix(1 0 0 1 150.88 15.22)"  >
<path style="stroke: none; stroke-width: 0; stroke-dasharray: none; stroke-linecap: butt; stroke-dashoffset: 0; stroke-linejoin: miter; stroke-miterlimit: 4; fill: rgb(255,255,255); fill-rule: nonzero; opacity: 1;" vector-effect="non-scaling-stroke"  transform=" translate(-517.41, -133.22)" d="M 543.69 186.94 L 543.69 127.36 C 543.69 106.93 538.1600000000001 96.5 519.22 96.5 C 506.45000000000005 96.5 495.17 104.8 491.13000000000005 109.69 L 491.13000000000005 186.94 L 472.40000000000003 186.94 L 472.40000000000003 82.24 L 491.13000000000005 82.24 L 491.13000000000005 93.31 C 496.66 88.2 508.58000000000004 79.48 525.6 79.48 C 549.22 79.48 562.4100000000001 91.4 562.4100000000001 118 L 562.4100000000001 186.95 L 543.6800000000001 186.95 Z" stroke-linecap="round" />
</g>
		<g transform="matrix(1 0 0 1 251.53 16.69)"  >
<path style="stroke: none; stroke-width: 0; stroke-dasharray: none; stroke-linecap: butt; stroke-dashoffset: 0; stroke-linejoin: miter; stroke-miterlimit: 4; fill: rgb(255,255,255); fill-rule: nonzero; opacity: 1;" vector-effect="non-scaling-stroke"  transform=" translate(-618.06, -134.69)" d="M 663.92 175.87 C 654.77 183.74 639.24 189.91 617.74 189.91 C 586.46 189.91 572.2 171.82 572.2 152.03 C 572.2 128.2 596.46 118.2 615.4000000000001 118.2 C 625.4000000000001 118.2 637.32 120.97 645.83 128.41 L 645.83 115.42999999999999 C 645.83 103.94 637.1 95.42999999999999 619.87 95.42999999999999 C 606.25 95.42999999999999 594.33 99.89999999999999 590.72 101.6 L 584.5500000000001 87.56 C 592.6400000000001 83.94 604.7700000000001 79.47 620.94 79.47 C 655.2 79.47 663.9200000000001 95.64 663.9200000000001 119.9 L 663.9200000000001 175.87 Z M 645.83 144.81 C 640.3000000000001 139.92000000000002 630.51 134.17000000000002 617.95 134.17000000000002 C 600.2900000000001 134.17000000000002 591.5600000000001 143.32000000000002 591.5600000000001 153.54000000000002 C 591.5600000000001 163.76000000000002 600.9200000000001 173.97000000000003 619.0100000000001 173.97000000000003 C 630.5000000000001 173.97000000000003 639.6500000000001 170.99000000000004 645.82 166.73000000000002 L 645.82 144.81 Z" stroke-linecap="round" />
</g>
		<g transform="matrix(1 0 0 1 335.11 -45.78)"  >
<path style="stroke: none; stroke-width: 0; stroke-dasharray: none; stroke-linecap: butt; stroke-dashoffset: 0; stroke-linejoin: miter; stroke-miterlimit: 4; fill: rgb(255,255,255); fill-rule: nonzero; opacity: 1;" vector-effect="non-scaling-stroke"  transform=" translate(-701.64, -72.22)" d="M 676.4 72.18 C 676.4 58.31000000000001 687.75 46.970000000000006 701.61 46.970000000000006 C 715.47 46.970000000000006 726.89 58.32000000000001 726.89 72.18 C 726.89 86.04 715.54 97.46000000000001 701.61 97.46000000000001 C 687.6800000000001 97.46000000000001 676.4 86.11000000000001 676.4 72.18 Z M 722.7 72.18 C 722.7 60.620000000000005 713.25 50.96000000000001 701.62 50.96000000000001 C 689.99 50.96000000000001 680.68 60.63000000000001 680.68 72.18 C 680.68 83.73 689.9899999999999 93.47 701.62 93.47 C 713.2500000000001 93.47 722.7 83.8 722.7 72.18 Z M 701.48 74.35 L 698.26 74.35 L 698.26 83.74 C 698.26 84.86 697.28 85.77 696.16 85.77 C 694.9699999999999 85.77 694.06 84.86 694.06 83.74 L 694.06 61.33 C 694.06 59.93 695.18 58.809999999999995 696.5799999999999 58.809999999999995 L 702.8799999999999 58.809999999999995 C 707.2199999999999 58.809999999999995 710.7199999999999 62.099999999999994 710.7199999999999 66.72 C 710.7199999999999 69.03 709.9499999999999 70.92 708.55 72.32 C 707.78 73.02 706.87 73.58 705.8199999999999 73.92999999999999 L 710.5799999999999 82.67999999999999 C 710.79 83.1 710.93 83.52 710.93 83.86999999999999 C 710.93 84.91999999999999 710.0899999999999 85.82999999999998 708.9 85.82999999999998 C 708.13 85.82999999999998 707.5 85.40999999999998 707.0799999999999 84.70999999999998 L 701.4799999999999 74.33999999999997 Z M 702.88 70.36 C 705.33 70.36 706.59 69.17 706.59 66.72 C 706.59 64.27 705.26 62.87 702.88 62.87 L 698.26 62.87 L 698.26 70.36 L 702.88 70.36 Z" stroke-linecap="round" />
</g>
</g>
</g>
</svg>